<?xml version="1.0" encoding="utf-8"?>
<!-- Generator: Adobe Illustrator 22.1.0, SVG Export Plug-In . SVG Version: 6.00 Build 0)  -->
<svg version="1.1" id="Layer_1" xmlns="http://www.w3.org/2000/svg" xmlns:xlink="http://www.w3.org/1999/xlink" x="0px" y="0px"
	 viewBox="0 0 200 200" enable-background="new 0 0 200 200" xml:space="preserve">
<g id="Layer_9">
	<rect fill="#A2A59D" width="200" height="200"/>
</g>
<g id="Layer_2_1_" display="none">
	<path display="inline" fill="#FEEB5B" d="M115.329,173.014h-31.18c-18.894,0-34.352-15.459-34.352-34.352v-78.67
		c0-18.894,15.459-34.352,34.352-34.352h31.18c18.894,0,34.352,15.459,34.352,34.352v78.67
		C149.682,157.556,134.223,173.014,115.329,173.014z"/>
</g>
<g id="Layer_1_1_" display="none">
	<g display="inline">
		<path fill="#E5B422" d="M99.736,49.668c-0.046,0-0.096-0.007-0.142-0.028l-14.353-6.01c-0.107-0.043-0.185-0.139-0.214-0.253
			c-0.025-0.114,0.004-0.235,0.082-0.324l14.356-16.197c0.142-0.157,0.406-0.157,0.548,0l14.349,16.197
			c0.078,0.089,0.114,0.21,0.085,0.324c-0.028,0.114-0.107,0.21-0.214,0.253l-14.356,6.009
			C99.832,49.66,99.782,49.668,99.736,49.668z M85.995,43.157l13.74,5.752l13.744-5.752l-13.74-15.51L85.995,43.157z"/>
		<path fill="#E5B422" d="M99.739,171.918c-0.103,0-0.203-0.043-0.274-0.121L85.109,155.6c-0.078-0.085-0.107-0.206-0.082-0.32
			c0.028-0.121,0.107-0.214,0.214-0.256l14.353-6.009c0.093-0.043,0.192-0.043,0.285,0l14.356,6.009
			c0.107,0.043,0.185,0.135,0.214,0.256c0.028,0.114-0.007,0.235-0.085,0.32l-14.349,16.197
			C99.942,171.875,99.842,171.918,99.739,171.918z M85.995,155.5l13.744,15.506l13.74-15.506l-13.744-5.752L85.995,155.5z"/>
		<path fill="#E5B422" d="M65.734,99.688c-0.007,0-0.014,0-0.025,0c-0.174-0.011-0.317-0.146-0.338-0.32l-2.424-21.365
			c-0.007-0.085,0.011-0.171,0.061-0.246l12.384-18.695c0.1-0.146,0.299-0.196,0.449-0.132c0.164,0.071,0.249,0.249,0.206,0.424
			l-9.96,40.061C66.047,99.578,65.901,99.688,65.734,99.688z M63.687,78.049l2.182,19.226l8.96-36.045L63.687,78.049z"/>
		<path fill="#E5B422" d="M75.694,139.752c-0.117,0-0.235-0.057-0.303-0.164l-12.384-18.703c-0.05-0.071-0.068-0.157-0.061-0.242
			l2.424-21.362c0.021-0.174,0.164-0.31,0.338-0.32c0.199-0.025,0.335,0.103,0.377,0.274l9.96,40.068
			c0.043,0.171-0.043,0.349-0.206,0.42C75.793,139.745,75.743,139.752,75.694,139.752z M63.687,120.594l11.142,16.83l-8.96-36.049
			L63.687,120.594z"/>
		<path fill="#E5B422" d="M75.694,59.628c-0.103,0-0.206-0.043-0.278-0.125c-0.103-0.121-0.117-0.292-0.036-0.427l9.689-15.969
			c0.1-0.157,0.281-0.231,0.456-0.146l14.353,6.009c0.135,0.057,0.221,0.189,0.221,0.335c0,0.15-0.089,0.281-0.224,0.338
			l-24.042,9.96C75.79,59.62,75.74,59.628,75.694,59.628z M85.533,43.755l-8.949,14.748l22.205-9.198L85.533,43.755z"/>
		<path fill="#E5B422" d="M123.781,59.628c-0.05,0-0.093-0.007-0.142-0.025l-24.042-9.96c-0.135-0.057-0.224-0.189-0.224-0.338
			c0-0.146,0.085-0.278,0.221-0.335l14.356-6.009c0.171-0.075,0.356-0.014,0.456,0.146l9.689,15.969
			c0.078,0.135,0.064,0.306-0.036,0.427C123.988,59.585,123.888,59.628,123.781,59.628z M100.683,49.304l22.209,9.198l-8.949-14.748
			L100.683,49.304z"/>
		<path fill="#E5B422" d="M99.739,171.918c-0.103,0-0.203-0.043-0.274-0.121L85.109,155.6c-0.078-0.085-0.107-0.206-0.082-0.32
			c0.028-0.121,0.107-0.214,0.214-0.256l14.353-6.009c0.093-0.043,0.192-0.043,0.285,0l14.356,6.009
			c0.107,0.043,0.185,0.135,0.214,0.256c0.028,0.114-0.007,0.235-0.085,0.32l-14.349,16.197
			C99.942,171.875,99.842,171.918,99.739,171.918z M85.995,155.5l13.744,15.506l13.74-15.506l-13.744-5.752L85.995,155.5z"/>
		<path fill="#E5B422" d="M85.383,155.721c-0.125,0-0.242-0.064-0.313-0.171l-9.689-15.969c-0.082-0.135-0.068-0.313,0.036-0.427
			c0.107-0.121,0.271-0.164,0.416-0.1l24.042,9.96c0.135,0.057,0.224,0.185,0.224,0.335s-0.085,0.278-0.221,0.335l-14.353,6.009
			C85.479,155.714,85.429,155.721,85.383,155.721z M76.584,140.151l8.949,14.751l13.256-5.553L76.584,140.151z"/>
		<path fill="#E5B422" d="M114.092,155.721c-0.05,0-0.093-0.007-0.142-0.028l-14.356-6.009c-0.135-0.057-0.221-0.185-0.221-0.335
			s0.089-0.278,0.224-0.335l24.042-9.96c0.157-0.064,0.313-0.021,0.42,0.1c0.1,0.114,0.114,0.292,0.036,0.427l-9.689,15.969
			C114.334,155.657,114.213,155.721,114.092,155.721z M100.683,149.349l13.26,5.553l8.949-14.751L100.683,149.349z"/>
		<path fill="#E5B422" d="M63.309,121.05c-0.128,0-0.253-0.071-0.317-0.185L50.94,99.503c-0.064-0.11-0.064-0.246,0-0.356
			l12.053-21.365c0.078-0.142,0.26-0.217,0.388-0.178c0.157,0.028,0.274,0.157,0.292,0.313l2.424,21.365l-2.424,21.447
			c-0.018,0.157-0.135,0.285-0.292,0.313C63.359,121.05,63.334,121.05,63.309,121.05z M51.676,99.325l11.398,20.201l2.296-20.244
			l-2.296-20.166L51.676,99.325z"/>
		<path fill="#E5B422" d="M133.741,99.688c-0.164,0-0.313-0.11-0.356-0.274l-9.96-40.061c-0.043-0.174,0.05-0.352,0.206-0.424
			c0.178-0.068,0.356-0.018,0.456,0.132l12.388,18.695c0.043,0.075,0.064,0.16,0.057,0.246l-2.428,21.365
			c-0.021,0.174-0.164,0.31-0.342,0.32C133.756,99.688,133.748,99.688,133.741,99.688z M124.643,61.229l8.963,36.045l2.186-19.226
			L124.643,61.229z"/>
		<path fill="#E5B422" d="M123.781,139.752c-0.05,0-0.1-0.007-0.15-0.028c-0.157-0.071-0.249-0.249-0.206-0.42l9.96-40.068
			c0.043-0.164,0.192-0.274,0.356-0.274c0.007,0,0.014,0,0.021,0c0.178,0.011,0.32,0.146,0.342,0.32l2.428,21.362
			c0.007,0.085-0.014,0.171-0.057,0.242l-12.388,18.703C124.016,139.695,123.902,139.752,123.781,139.752z M133.606,101.376
			l-8.963,36.049l11.149-16.83L133.606,101.376z"/>
		<path fill="#E5B422" d="M136.169,121.05c-0.021,0-0.05,0-0.071-0.007c-0.157-0.028-0.271-0.157-0.292-0.313l-2.428-21.362
			l2.428-21.451c0.021-0.157,0.135-0.285,0.292-0.313c0.142-0.043,0.306,0.039,0.392,0.178l12.053,21.365
			c0.057,0.11,0.057,0.246,0,0.356l-12.053,21.362C136.418,120.979,136.297,121.05,136.169,121.05z M136.404,79.117l-2.3,20.251
			l2.3,20.158l11.398-20.201L136.404,79.117z"/>
		<path fill="#E5B422" d="M99.736,149.712c-0.046,0-0.096-0.007-0.139-0.028l-24.042-9.96c-0.107-0.043-0.189-0.135-0.214-0.249
			l-9.96-40.061c-0.014-0.061-0.014-0.117,0-0.178l9.96-40.061c0.025-0.11,0.107-0.203,0.214-0.249l24.042-9.96
			c0.085-0.036,0.192-0.036,0.278,0l24.049,9.96c0.107,0.046,0.185,0.139,0.214,0.249l9.96,40.061c0.014,0.061,0.014,0.117,0,0.178
			l-9.96,40.061c-0.028,0.114-0.107,0.206-0.214,0.249l-24.049,9.96C99.832,149.705,99.782,149.712,99.736,149.712z M76.003,139.126
			l23.732,9.832l23.74-9.832l9.889-39.801l-9.889-39.794L99.736,49.7l-23.732,9.832l-9.892,39.794L76.003,139.126z"/>
		<path fill="#E5B422" d="M119.061,171.918H80.417c-16.282,0-29.524-13.242-29.524-29.524V56.26
			c0-16.282,13.242-29.524,29.524-29.524h38.644c16.282,0,29.524,13.242,29.524,29.524v86.134
			C148.585,158.676,135.343,171.918,119.061,171.918z M80.417,27.462c-15.88,0-28.798,12.918-28.798,28.798v86.134
			c0,15.876,12.918,28.798,28.798,28.798h38.644c15.876,0,28.798-12.922,28.798-28.798V56.26c0-15.88-12.922-28.798-28.798-28.798
			C119.061,27.462,80.417,27.462,80.417,27.462z"/>
		<path fill="#E5B422" d="M136.169,78.323c-0.121,0-0.235-0.057-0.306-0.16l-12.388-18.695l-9.697-15.983
			c-0.064-0.107-0.071-0.235-0.014-0.349c0.05-0.11,0.157-0.185,0.285-0.203l29.766-3.681c0.114-0.004,0.235,0.028,0.313,0.114
			c0.078,0.085,0.107,0.206,0.085,0.32l-7.689,38.345c-0.028,0.146-0.142,0.26-0.285,0.285
			C136.219,78.323,136.19,78.323,136.169,78.323z M114.697,43.588l9.398,15.488l11.889,17.948l7.418-36.985L114.697,43.588z"/>
		<path fill="#E5B422" d="M114.092,43.659c-0.05,0-0.093-0.007-0.142-0.028c-0.185-0.078-0.271-0.292-0.192-0.477l6.827-16.197
			c0.078-0.189,0.292-0.271,0.477-0.192c0.185,0.078,0.271,0.292,0.192,0.477l-6.827,16.197
			C114.37,43.577,114.234,43.659,114.092,43.659z"/>
		<path fill="#E5B422" d="M63.306,78.323c-0.025,0-0.046,0-0.071-0.007c-0.142-0.025-0.256-0.139-0.285-0.285l-7.689-38.345
			c-0.025-0.114,0.011-0.235,0.089-0.32c0.075-0.085,0.185-0.117,0.313-0.114l29.766,3.681c0.121,0.018,0.228,0.093,0.281,0.203
			c0.053,0.114,0.05,0.242-0.014,0.349l-9.689,15.969l-12.398,18.71C63.541,78.266,63.427,78.323,63.306,78.323z M56.073,40.039
			l7.418,36.985l11.9-17.962l9.387-15.474L56.073,40.039z"/>
		<path fill="#E5B422" d="M85.383,43.659c-0.142,0-0.278-0.082-0.335-0.221l-6.824-16.197c-0.078-0.185,0.007-0.399,0.192-0.477
			c0.178-0.085,0.402,0.007,0.477,0.192l6.824,16.197c0.078,0.185-0.007,0.399-0.192,0.477
			C85.479,43.652,85.429,43.659,85.383,43.659z"/>
		<path fill="#E5B422" d="M63.306,78.323c-0.057,0-0.117-0.011-0.171-0.043l-12.05-6.432c-0.178-0.093-0.246-0.313-0.15-0.491
			c0.089-0.174,0.31-0.253,0.491-0.15l12.05,6.432c0.178,0.093,0.246,0.313,0.15,0.491C63.562,78.255,63.434,78.323,63.306,78.323z"
			/>
		<path fill="#E5B422" d="M136.169,78.323c-0.128,0-0.256-0.068-0.32-0.192c-0.093-0.178-0.028-0.399,0.15-0.491l12.046-6.432
			c0.178-0.11,0.399-0.036,0.491,0.15c0.093,0.178,0.028,0.399-0.15,0.491L136.34,78.28
			C136.283,78.312,136.226,78.323,136.169,78.323z"/>
		<path fill="#E5B422" d="M143.858,159.402c-0.014,0-0.028,0-0.043,0l-29.766-3.681c-0.128-0.014-0.235-0.093-0.285-0.206
			c-0.057-0.107-0.05-0.242,0.014-0.349l9.689-15.969l12.395-18.71c0.085-0.128,0.235-0.214,0.377-0.157
			c0.142,0.028,0.256,0.142,0.285,0.285l7.689,38.352c0.021,0.114-0.007,0.235-0.085,0.32
			C144.057,159.359,143.958,159.402,143.858,159.402z M114.697,155.066l28.705,3.545l-7.418-36.985l-11.896,17.962L114.697,155.066z
			"/>
		<path fill="#E5B422" d="M120.919,171.918c-0.142,0-0.278-0.085-0.335-0.221l-6.827-16.197c-0.078-0.185,0.007-0.399,0.192-0.477
			c0.206-0.078,0.399,0.014,0.477,0.192l6.827,16.197c0.078,0.185-0.007,0.399-0.192,0.477
			C121.012,171.911,120.969,171.918,120.919,171.918z"/>
		<path fill="#E5B422" d="M55.617,159.402c-0.1,0-0.199-0.043-0.267-0.114c-0.078-0.085-0.114-0.206-0.089-0.32l7.689-38.352
			c0.028-0.142,0.142-0.256,0.285-0.285c0.146-0.043,0.292,0.028,0.374,0.157l12.388,18.703l9.7,15.976
			c0.064,0.107,0.068,0.242,0.014,0.349c-0.053,0.114-0.16,0.192-0.281,0.206l-29.766,3.681
			C55.645,159.402,55.631,159.402,55.617,159.402z M63.491,121.627l-7.418,36.985l28.705-3.545l-9.398-15.485L63.491,121.627z"/>
		<path fill="#E5B422" d="M78.559,171.918c-0.046,0-0.096-0.007-0.142-0.028c-0.185-0.078-0.271-0.292-0.192-0.477l6.824-16.197
			c0.071-0.178,0.281-0.285,0.477-0.192c0.185,0.078,0.271,0.292,0.192,0.477l-6.824,16.197
			C78.837,171.832,78.702,171.918,78.559,171.918z"/>
		<path fill="#E5B422" d="M51.256,127.486c-0.128,0-0.256-0.071-0.32-0.192c-0.096-0.178-0.028-0.399,0.15-0.491l12.05-6.436
			c0.174-0.1,0.395-0.028,0.491,0.15s0.028,0.399-0.15,0.491l-12.05,6.436C51.374,127.472,51.313,127.486,51.256,127.486z"/>
		<path fill="#E5B422" d="M148.215,127.486c-0.057,0-0.114-0.014-0.171-0.043l-12.046-6.436c-0.178-0.093-0.242-0.313-0.15-0.491
			c0.093-0.171,0.306-0.242,0.491-0.15l12.046,6.436c0.178,0.093,0.242,0.313,0.15,0.491
			C148.471,127.415,148.343,127.486,148.215,127.486z"/>
	</g>
	<path display="inline" fill="#E5B422" d="M119.061,173.014H80.417c-16.884,0-30.62-13.74-30.62-30.62V56.26
		c0-16.884,13.737-30.62,30.62-30.62h38.644c16.88,0,30.62,13.737,30.62,30.62v86.134
		C149.682,159.274,135.941,173.014,119.061,173.014z M80.417,28.559c-15.275,0-27.701,12.427-27.701,27.701v86.134
		c0,15.278,12.427,27.701,27.701,27.701h38.644c15.278,0,27.701-12.423,27.701-27.701V56.26c0-15.275-12.423-27.701-27.701-27.701
		C119.061,28.559,80.417,28.559,80.417,28.559z"/>
</g>
<g id="Layer_4" display="none">
	<polyline display="inline" fill="#EE3424" points="101.643,24.149 146.215,98.858 143.897,108.267 101.64,175.864 53.66,99.143 
		101.643,24.149 101.643,24.149 101.643,24.149 	"/>
</g>
<g id="Layer_3" display="none">
	<g display="inline">
		<path fill="#F68C33" d="M102.687,112.123c-0.039,0-0.079-0.006-0.118-0.024l-29.201-12c-0.157-0.067-0.233-0.242-0.169-0.399
			L102.4,24.706c0.045-0.121,0.16-0.197,0.288-0.197h0.003c0.13,0,0.245,0.082,0.288,0.206l25.086,70.308
			c0.048,0.133,0,0.281-0.121,0.36l-25.083,16.69C102.808,112.105,102.748,112.123,102.687,112.123z M73.885,99.642l28.769,11.821
			l24.744-16.46l-24.722-69.298L73.885,99.642z"/>
		<path fill="#F68C33" d="M102.687,175.507c-0.03,0-0.058,0-0.088-0.012c-0.13-0.036-0.221-0.157-0.221-0.297v-63.384
			c0-0.103,0.051-0.2,0.136-0.26l25.089-16.684c0.097-0.076,0.254-0.073,0.357,0.012l17.365,13.507
			c0.127,0.097,0.157,0.272,0.073,0.412l-42.451,66.568C102.89,175.459,102.79,175.507,102.687,175.507z M102.996,111.978v62.162
			l41.731-65.436L127.76,95.508L102.996,111.978z"/>
		<path fill="#F68C33" d="M102.687,175.507c-0.109,0-0.215-0.054-0.269-0.157l-35.699-63.384c-0.051-0.091-0.054-0.206-0.003-0.297
			l6.498-12.006c0.07-0.139,0.236-0.2,0.39-0.139l29.201,12.006c0.115,0.048,0.191,0.157,0.191,0.284v63.384
			c0,0.139-0.094,0.266-0.23,0.303C102.738,175.507,102.714,175.507,102.687,175.507z M67.342,111.814l35.036,62.204V112.02
			l-28.753-11.815L67.342,111.814z"/>
		<path fill="#F68C33" d="M66.988,112.123c-0.082,0-0.157-0.03-0.218-0.085l-12.284-12.006c-0.103-0.103-0.121-0.263-0.042-0.387
			l47.983-74.993c0.082-0.139,0.26-0.191,0.399-0.109c0.142,0.073,0.209,0.239,0.148,0.387L73.773,99.924L67.26,111.96
			c-0.045,0.085-0.13,0.145-0.227,0.163C67.018,112.123,67.003,112.123,66.988,112.123z M55.1,99.766l11.812,11.54l6.301-11.642
			l28.051-72.049L55.1,99.766z"/>
		<path fill="#F68C33" d="M145.138,108.939c-0.067,0-0.133-0.018-0.188-0.067l-17.365-13.501c-0.048-0.036-0.085-0.085-0.103-0.142
			l-25.086-70.308c-0.054-0.151,0.015-0.318,0.16-0.384c0.154-0.058,0.321-0.009,0.399,0.127l42.454,74.651
			c0.024,0.048,0.036,0.1,0.036,0.154v9.161c0,0.121-0.067,0.224-0.176,0.278C145.229,108.927,145.186,108.939,145.138,108.939z
			 M128.033,94.936l16.796,13.059v-8.444L104.17,28.053L128.033,94.936z"/>
		<path fill="#F68C33" d="M102.687,175.507c-0.103,0-0.203-0.048-0.26-0.145L54.444,99.978c-0.085-0.133-0.058-0.309,0.064-0.406
			c0.121-0.097,0.3-0.094,0.415,0.018l12.284,12c0.021,0.024,0.036,0.048,0.051,0.073l35.699,63.384
			c0.082,0.145,0.033,0.333-0.109,0.418C102.796,175.495,102.741,175.507,102.687,175.507z M56.405,101.906l40.369,63.427
			L66.74,112.002L56.405,101.906z"/>
	</g>
	<path display="inline" fill="#F68C33" d="M102.687,176.439L102.687,176.439c-0.424,0-0.817-0.218-1.047-0.575l-47.983-75.387
		c-0.257-0.409-0.257-0.926,0.003-1.335l47.983-74.993c0.233-0.366,0.687-0.669,1.077-0.569c0.433,0.009,0.829,0.248,1.044,0.626
		l42.451,74.651c0.109,0.185,0.163,0.396,0.163,0.611v9.161c0,0.236-0.067,0.466-0.194,0.666l-42.454,66.568
		C103.504,176.221,103.111,176.439,102.687,176.439z M56.175,99.815l46.512,73.078l41.21-64.625v-8.471l-41.274-72.581
		L56.175,99.815z"/>
</g>
<g id="Layer_6">
	<polyline fill="#0286BA" points="102.997,28.573 134.401,70.654 154.612,112.026 149.805,132.93 136.267,159.324 103.41,175.226 
		69.722,159.324 55.383,133.185 51.383,112.026 71.45,72.244 102.997,28.573 	"/>
</g>
<g id="Layer_5">
	<g>
		<path fill="#FFFFFF" d="M102.997,160.967c-0.048,0-0.098-0.011-0.14-0.037l-23.042-13.952c-0.05-0.032-0.087-0.074-0.111-0.127
			l-9.546-23.045c-0.019-0.048-0.024-0.095-0.016-0.143l5.135-36.274c0.005-0.037,0.016-0.074,0.037-0.103l27.454-44.834
			c0.095-0.164,0.366-0.164,0.461,0l27.454,44.834c0.016,0.029,0.032,0.066,0.037,0.103l5.135,36.274
			c0.005,0.048,0,0.095-0.021,0.143l-9.543,23.045c-0.021,0.053-0.058,0.095-0.106,0.127L103.14,160.93
			C103.095,160.956,103.045,160.967,102.997,160.967z M80.172,146.559l22.825,13.82l22.825-13.82l9.48-22.897l-5.113-36.144
			L102.997,43.11L75.803,87.518l-5.116,36.144L80.172,146.559z"/>
		<path fill="#FFFFFF" d="M119.93,163.468c-0.011,0-0.026,0-0.037,0l-16.935-2.501c-0.114-0.021-0.204-0.106-0.225-0.217
			c-0.024-0.111,0.026-0.228,0.125-0.286l23.04-13.952c0.106-0.064,0.223-0.048,0.318,0.026c0.085,0.069,0.122,0.191,0.079,0.302
			l-6.11,16.453C120.142,163.399,120.041,163.468,119.93,163.468z M103.781,160.538l15.968,2.358l5.765-15.515L103.781,160.538z"/>
		<path fill="#FFFFFF" d="M126.04,147.015c-0.074,0-0.148-0.032-0.201-0.09c-0.069-0.074-0.09-0.185-0.048-0.286l9.543-23.045
			c0.042-0.111,0.159-0.18,0.281-0.164c0.117,0.016,0.217,0.106,0.233,0.223l3.285,19.097c0.026,0.138-0.053,0.265-0.185,0.307
			l-12.829,3.948C126.093,147.01,126.066,147.015,126.04,147.015z M135.477,124.669l-8.966,21.646l12.05-3.709L135.477,124.669z"/>
		<path fill="#FFFFFF" d="M119.93,163.468c-0.079,0-0.159-0.032-0.207-0.095c-0.064-0.074-0.079-0.18-0.048-0.27l6.11-16.453
			c0.032-0.079,0.095-0.138,0.175-0.164l12.829-3.948c0.085-0.021,0.18-0.011,0.249,0.048c0.074,0.058,0.111,0.148,0.101,0.238
			l-1.791,17.37c-0.011,0.122-0.106,0.217-0.223,0.238l-17.147,3.031C119.962,163.468,119.946,163.468,119.93,163.468z
			 M126.246,146.967l-5.898,15.881l16.48-2.914l1.727-16.755L126.246,146.967z"/>
		<path fill="#FFFFFF" d="M138.868,143.067c-0.026,0-0.058-0.005-0.085-0.011c-0.095-0.032-0.164-0.117-0.18-0.212l-3.285-19.097
			c-0.021-0.106,0.026-0.212,0.117-0.276c0.085-0.053,0.201-0.053,0.297,0l14.037,9.035c0.069,0.042,0.117,0.122,0.122,0.201
			c0.005,0.085-0.021,0.17-0.085,0.223l-10.752,10.063C139.001,143.041,138.937,143.067,138.868,143.067z M135.954,124.261
			l3.095,17.995l10.132-9.48L135.954,124.261z"/>
		<path fill="#FFFFFF" d="M137.077,160.437c-0.021,0-0.048,0-0.069-0.011c-0.132-0.032-0.217-0.154-0.201-0.286l1.791-17.37
			c0.005-0.069,0.037-0.127,0.085-0.17l10.752-10.063c0.095-0.09,0.233-0.095,0.344-0.026c0.106,0.079,0.143,0.217,0.09,0.334
			l-12.543,27.433C137.279,160.379,137.183,160.437,137.077,160.437z M139.128,142.924l-1.611,15.632l11.287-24.683L139.128,142.924
			z"/>
		<path fill="#FFFFFF" d="M135.583,123.97c-0.011,0-0.016,0-0.026,0c-0.127-0.011-0.223-0.106-0.244-0.233l-5.135-36.274
			c-0.016-0.111,0.042-0.22,0.138-0.273c0.095-0.058,0.212-0.045,0.307,0.026l13.798,11.533c0.085,0.074,0.117,0.193,0.079,0.299
			l-8.664,24.741C135.8,123.901,135.7,123.97,135.583,123.97z M130.814,88.085l4.88,34.475l8.235-23.514L130.814,88.085z"/>
		<path fill="#FFFFFF" d="M149.62,133.004c-0.053,0-0.101-0.016-0.148-0.042l-14.037-9.035c-0.106-0.069-0.148-0.201-0.106-0.318
			l8.664-24.741c0.037-0.109,0.138-0.18,0.254-0.18c0.005,0,0.016,0,0.026,0c0.122,0.011,0.223,0.106,0.244,0.228l5.373,33.775
			c0.016,0.106-0.032,0.212-0.122,0.27C149.721,132.989,149.673,133.004,149.62,133.004z M135.912,123.588l13.343,8.59
			l-5.108-32.114L135.912,123.588z"/>
		<path fill="#FFFFFF" d="M149.62,133.004h-0.005c-0.132,0-0.244-0.095-0.265-0.228l-5.373-33.775
			c-0.016-0.125,0.053-0.246,0.17-0.294c0.117-0.05,0.249-0.008,0.323,0.098l9.374,13.507c0.042,0.058,0.058,0.132,0.042,0.207
			l-4.001,20.268C149.858,132.914,149.747,133.004,149.62,133.004z M144.703,100.09l4.944,31.097l3.688-18.663L144.703,100.09z"/>
		<path fill="#FFFFFF" d="M130.448,87.696c-0.09,0-0.18-0.045-0.233-0.13l-27.449-44.834c-0.074-0.119-0.045-0.273,0.066-0.358
			c0.114-0.085,0.265-0.072,0.363,0.034l18.917,20.647c0.021,0.026,0.042,0.058,0.053,0.093l8.537,24.187
			c0.048,0.13-0.011,0.276-0.138,0.334C130.528,87.688,130.485,87.696,130.448,87.696z M104.698,44.848l24.637,40.24l-7.662-21.707
			L104.698,44.848z"/>
		<path fill="#FFFFFF" d="M144.247,99.229c-0.064,0-0.122-0.021-0.175-0.061l-13.798-11.533c-0.037-0.032-0.064-0.074-0.079-0.119
			l-8.537-24.187c-0.042-0.109-0.005-0.231,0.085-0.302c0.085-0.072,0.217-0.077,0.313-0.019l13.512,8.37
			c0.053,0.034,0.095,0.085,0.117,0.148l8.823,27.351c0.037,0.114-0.005,0.238-0.106,0.307
			C144.353,99.216,144.3,99.229,144.247,99.229z M130.682,87.264l13.02,10.884l-8.505-26.362l-12.77-7.911L130.682,87.264z"/>
		<path fill="#FFFFFF" d="M121.912,63.509c-0.074,0-0.148-0.029-0.201-0.087l-18.912-20.647c-0.048-0.05-0.072-0.114-0.072-0.183
			v-15.87c0-0.125,0.085-0.233,0.207-0.262c0.125-0.026,0.246,0.026,0.305,0.138l18.912,36.518c0.064,0.119,0.026,0.27-0.085,0.347
			C122.018,63.493,121.965,63.509,121.912,63.509z M103.267,42.485l17.463,19.063l-17.463-33.715V42.485z"/>
		<path fill="#FFFFFF" d="M135.424,71.878c-0.048,0-0.101-0.013-0.143-0.04l-13.512-8.37c-0.042-0.026-0.074-0.061-0.095-0.106
			l-18.917-36.518c-0.066-0.127-0.021-0.281,0.098-0.355c0.127-0.072,0.281-0.048,0.363,0.072l32.43,44.887
			c0.074,0.106,0.064,0.249-0.027,0.344C135.567,71.849,135.498,71.878,135.424,71.878z M122.118,63.048l12.283,7.607
			l-29.478-40.802L122.118,63.048z"/>
		<path fill="#FFFFFF" d="M153.621,112.736c-0.085,0-0.17-0.042-0.223-0.117l-9.374-13.507c-0.016-0.021-0.027-0.045-0.037-0.072
			l-8.823-27.351c-0.042-0.135,0.026-0.283,0.164-0.336c0.132-0.05,0.281,0.011,0.344,0.143l18.197,40.858
			c0.058,0.127,0.005,0.281-0.117,0.35C153.711,112.725,153.668,112.736,153.621,112.736z M144.491,98.837l7.71,11.107
			l-14.964-33.595L144.491,98.837z"/>
		<path fill="#FFFFFF" d="M102.997,174.495c-0.045,0-0.09-0.011-0.13-0.032c-0.087-0.048-0.14-0.138-0.14-0.238v-13.528
			c0-0.079,0.034-0.154,0.093-0.207c0.061-0.053,0.14-0.058,0.217-0.064l16.93,2.501c0.117,0.016,0.201,0.101,0.228,0.212
			s-0.021,0.223-0.117,0.286l-16.933,11.027C103.1,174.479,103.047,174.495,102.997,174.495z M103.267,161.009v12.717l15.915-10.365
			L103.267,161.009z"/>
		<path fill="#FFFFFF" d="M102.997,174.495c-0.098,0-0.191-0.053-0.241-0.143c-0.064-0.127-0.024-0.276,0.093-0.355l16.933-11.027
			c0.032-0.021,0.064-0.032,0.101-0.037l17.147-3.031c0.127-0.042,0.27,0.058,0.307,0.191c0.037,0.132-0.026,0.27-0.154,0.323
			L103.1,174.474C103.066,174.49,103.032,174.495,102.997,174.495z M120.031,163.457l-14.448,9.406l29.083-11.997L120.031,163.457z"
			/>
		<path fill="#FFFFFF" d="M86.059,163.468c-0.111,0-0.215-0.069-0.254-0.175L79.7,146.84c-0.04-0.111-0.008-0.233,0.082-0.302
			c0.09-0.074,0.217-0.085,0.313-0.026l23.042,13.952c0.098,0.058,0.148,0.175,0.125,0.286c-0.021,0.111-0.111,0.196-0.225,0.217
			l-16.938,2.501C86.086,163.468,86.072,163.468,86.059,163.468z M80.479,147.38l5.757,15.515l15.976-2.358L80.479,147.38z"/>
		<path fill="#FFFFFF" d="M79.955,147.015c-0.026,0-0.053-0.005-0.079-0.011l-12.831-3.948c-0.13-0.042-0.212-0.17-0.188-0.307
			l3.285-19.097c0.021-0.117,0.117-0.207,0.238-0.223c0.087-0.011,0.236,0.053,0.281,0.164l9.546,23.045
			c0.04,0.101,0.019,0.212-0.05,0.286C80.103,146.983,80.029,147.015,79.955,147.015z M67.431,142.606l12.052,3.709l-8.966-21.646
			L67.431,142.606z"/>
		<path fill="#FFFFFF" d="M86.059,163.468c-0.016,0-0.032,0-0.048-0.005l-17.145-3.031c-0.119-0.021-0.209-0.117-0.223-0.238
			l-1.791-17.37c-0.008-0.09,0.026-0.18,0.098-0.238c0.074-0.053,0.172-0.058,0.252-0.048l12.831,3.948
			c0.082,0.027,0.146,0.085,0.175,0.164l6.104,16.453c0.034,0.09,0.016,0.196-0.045,0.27
			C86.215,163.436,86.139,163.468,86.059,163.468z M69.163,159.934l16.477,2.914l-5.892-15.881l-12.312-3.789L69.163,159.934z"/>
		<path fill="#FFFFFF" d="M67.123,143.067c-0.069,0-0.135-0.026-0.185-0.074L56.186,132.93c-0.061-0.053-0.093-0.138-0.085-0.223
			c0.008-0.079,0.053-0.159,0.125-0.201l14.037-9.035c0.082-0.053,0.199-0.053,0.297,0c0.087,0.064,0.135,0.17,0.117,0.276
			l-3.285,19.097c-0.016,0.095-0.087,0.18-0.18,0.212C67.182,143.062,67.152,143.067,67.123,143.067z M56.812,132.777l10.129,9.48
			l3.097-17.995L56.812,132.777z"/>
		<path fill="#FFFFFF" d="M68.914,160.437c-0.103,0-0.201-0.058-0.246-0.159l-12.543-27.433c-0.053-0.117-0.019-0.254,0.087-0.334
			c0.103-0.074,0.244-0.069,0.344,0.026L67.308,142.6c0.048,0.042,0.077,0.101,0.085,0.17l1.791,17.37
			c0.013,0.132-0.072,0.254-0.199,0.286C68.962,160.437,68.938,160.437,68.914,160.437z M57.19,133.873l11.284,24.683l-1.611-15.632
			L57.19,133.873z"/>
		<path fill="#FFFFFF" d="M70.409,123.97c-0.114,0-0.217-0.069-0.257-0.18L61.49,99.049c-0.037-0.106-0.003-0.225,0.082-0.299
			l13.796-11.533c0.087-0.072,0.207-0.085,0.307-0.026c0.098,0.053,0.151,0.162,0.135,0.273l-5.135,36.274
			c-0.016,0.127-0.117,0.223-0.241,0.233C70.427,123.97,70.417,123.97,70.409,123.97z M62.065,99.046l8.232,23.509l4.878-34.47
			L62.065,99.046z"/>
		<path fill="#FFFFFF" d="M56.372,133.004c-0.05,0-0.103-0.016-0.148-0.042c-0.09-0.058-0.135-0.164-0.119-0.27l5.376-33.775
			c0.019-0.122,0.119-0.217,0.244-0.228c0.106-0.024,0.238,0.064,0.281,0.18l8.661,24.741c0.04,0.117-0.005,0.249-0.111,0.318
			l-14.037,9.035C56.475,132.989,56.422,133.004,56.372,133.004z M61.846,100.064l-5.111,32.114l13.348-8.59L61.846,100.064z"/>
		<path fill="#FFFFFF" d="M56.372,133.004c-0.13,0-0.241-0.09-0.265-0.217l-3.998-20.268c-0.016-0.074,0-0.148,0.042-0.207
			l9.374-13.507c0.072-0.106,0.209-0.146,0.323-0.098c0.119,0.048,0.188,0.17,0.167,0.294l-5.376,33.775
			c-0.021,0.132-0.13,0.228-0.262,0.228C56.374,133.004,56.374,133.004,56.372,133.004z M52.662,112.524l3.68,18.663l4.949-31.097
			L52.662,112.524z"/>
		<path fill="#FFFFFF" d="M75.543,87.696c-0.04,0-0.079-0.008-0.117-0.026c-0.125-0.058-0.185-0.204-0.14-0.334l8.537-24.187
			c0.013-0.034,0.032-0.066,0.056-0.093l18.92-20.647c0.093-0.106,0.249-0.119,0.363-0.034c0.111,0.085,0.14,0.238,0.066,0.358
			L75.774,87.566C75.723,87.651,75.636,87.696,75.543,87.696z M84.318,63.382l-7.662,21.707l24.64-40.24L84.318,63.382z"/>
		<path fill="#FFFFFF" d="M61.747,99.229c-0.053,0-0.106-0.013-0.151-0.045c-0.101-0.069-0.143-0.193-0.106-0.307l8.823-27.351
			c0.019-0.064,0.058-0.114,0.114-0.148l13.51-8.37c0.098-0.061,0.225-0.053,0.313,0.019c0.09,0.072,0.125,0.193,0.087,0.302
			L75.8,87.516c-0.019,0.045-0.045,0.087-0.082,0.119L61.922,99.168C61.872,99.208,61.808,99.229,61.747,99.229z M70.798,71.786
			l-8.505,26.362l13.02-10.884l8.256-23.39L70.798,71.786z M75.543,87.426h0.008H75.543z"/>
		<path fill="#FFFFFF" d="M70.57,71.878c-0.074,0-0.146-0.029-0.199-0.085c-0.087-0.095-0.098-0.238-0.021-0.344l32.427-44.887
			c0.085-0.119,0.241-0.143,0.363-0.072c0.119,0.074,0.164,0.228,0.098,0.355L84.321,63.363c-0.024,0.045-0.056,0.079-0.098,0.106
			l-13.51,8.37C70.668,71.865,70.621,71.878,70.57,71.878z M101.068,29.852L71.593,70.654l12.28-7.607L101.068,29.852z
			 M84.08,63.238h0.008H84.08z"/>
		<path fill="#FFFFFF" d="M52.374,112.736c-0.045,0-0.09-0.011-0.132-0.032c-0.122-0.069-0.172-0.223-0.117-0.35l18.197-40.858
			c0.058-0.132,0.212-0.188,0.347-0.143c0.132,0.053,0.204,0.201,0.159,0.336L62.005,99.04c-0.008,0.026-0.019,0.05-0.034,0.072
			l-9.374,13.507C52.543,112.694,52.458,112.736,52.374,112.736z M68.755,76.348l-14.962,33.595L61.5,98.836L68.755,76.348z"/>
		<path fill="#FFFFFF" d="M102.997,174.495c-0.034,0-0.069-0.005-0.103-0.021l-34.083-14.058c-0.127-0.053-0.196-0.191-0.156-0.323
			s0.172-0.249,0.307-0.191l17.145,3.031c0.034,0.005,0.069,0.016,0.101,0.037l16.938,11.027c0.117,0.079,0.156,0.228,0.093,0.355
			C103.188,174.442,103.095,174.495,102.997,174.495z M71.328,160.872l29.083,11.992l-14.453-9.406L71.328,160.872z"/>
	</g>
	<path fill="#FFFFFF" d="M102.997,175.311c-0.14,0-0.281-0.026-0.413-0.085l-34.083-14.058c-0.254-0.101-0.458-0.302-0.575-0.551
		l-12.543-27.433l-4.075-20.507c-0.042-0.223-0.019-0.45,0.074-0.652l18.197-40.86l32.538-45.081c0.408-0.562,1.351-0.562,1.759,0
		l32.427,44.887l18.308,41.054c0.09,0.201,0.117,0.429,0.074,0.652l-4.001,20.268l-12.622,27.671
		c-0.111,0.249-0.318,0.45-0.572,0.551l-34.08,14.058C103.278,175.285,103.138,175.311,102.997,175.311z M69.722,159.324
		l33.275,13.724l33.269-13.724l12.368-27.041l3.858-19.691L134.433,72.05l-31.436-43.478L71.45,72.244l-17.945,40.349l3.932,19.929
		L69.722,159.324z"/>
</g>
<g id="Layer_8" display="none">
	<ellipse display="inline" fill="#45B649" cx="102.182" cy="99.229" rx="51.255" ry="73.019"/>
</g>
<g id="Layer_7" display="none">
	<g display="inline">
		<path fill="#92C83E" d="M102.729,146.391c-0.078,0-0.152-0.021-0.219-0.071l-26.674-20.13c-0.05-0.042-0.092-0.092-0.117-0.149
			L64.673,99.367c-0.035-0.088-0.035-0.188,0-0.276L75.718,72.42c0.025-0.06,0.067-0.113,0.117-0.152l26.674-20.13
			c0.134-0.099,0.304-0.099,0.439,0l26.671,20.13c0.05,0.039,0.092,0.092,0.113,0.152l11.049,26.671
			c0.035,0.088,0.035,0.188,0,0.276l-11.049,26.674c-0.021,0.057-0.064,0.106-0.113,0.149l-26.671,20.13
			C102.881,146.37,102.807,146.391,102.729,146.391z M76.352,125.673l26.377,19.904l26.373-19.904l10.957-26.444l-10.957-26.441
			L102.729,52.88L76.352,72.788l-10.95,26.441L76.352,125.673z"/>
		<path fill="#92C83E" d="M102.729,171.158c-27.963,0-50.712-32.27-50.712-71.929c0-39.663,22.749-71.929,50.712-71.929
			c27.959,0,50.708,32.266,50.708,71.929C153.437,138.888,130.688,171.158,102.729,171.158z M102.729,28.022
			c-27.563,0-49.99,31.944-49.99,71.207s22.427,71.207,49.99,71.207s49.986-31.944,49.986-71.207S130.291,28.022,102.729,28.022z"/>
		<path fill="#92C83E" d="M102.729,171.158c-0.138,0-0.265-0.078-0.326-0.198l-8.193-16.57c-0.067-0.142-0.039-0.311,0.071-0.418
			l8.193-8.197c0.067-0.071,0.159-0.106,0.255-0.106l0,0c0.096,0,0.188,0.035,0.255,0.106l8.189,8.197
			c0.113,0.106,0.142,0.276,0.071,0.418l-8.19,16.57C102.994,171.08,102.867,171.158,102.729,171.158z M94.974,154.298l7.754,15.678
			l7.751-15.678l-7.751-7.758L94.974,154.298z"/>
		<path fill="#92C83E" d="M102.729,52.789c-0.096,0-0.188-0.035-0.255-0.106l-8.193-8.193c-0.11-0.11-0.138-0.276-0.071-0.414
			l8.193-16.574c0.12-0.248,0.531-0.248,0.651,0l8.19,16.574c0.071,0.138,0.042,0.304-0.071,0.414l-8.189,8.193
			C102.916,52.753,102.824,52.789,102.729,52.789z M94.974,44.164l7.754,7.751l7.751-7.751l-7.751-15.685L94.974,44.164z"/>
		<path fill="#92C83E" d="M61.356,107.783c-0.088,0-0.177-0.032-0.244-0.092l-8.979-8.193c-0.074-0.071-0.117-0.166-0.117-0.269
			s0.042-0.198,0.117-0.269l8.979-8.193c0.085-0.078,0.202-0.11,0.319-0.085c0.113,0.021,0.209,0.099,0.258,0.205l3.652,8.193
			c0.039,0.096,0.039,0.202,0,0.297l-3.652,8.193c-0.05,0.106-0.145,0.184-0.258,0.205
			C61.406,107.783,61.381,107.783,61.356,107.783z M52.916,99.229l8.313,7.588l3.383-7.588l-3.383-7.588L52.916,99.229z"/>
		<path fill="#92C83E" d="M144.101,107.783c-0.021,0-0.05,0-0.071-0.007c-0.12-0.021-0.212-0.099-0.262-0.205l-3.652-8.193
			c-0.042-0.096-0.042-0.202,0-0.297l3.652-8.193c0.05-0.106,0.142-0.184,0.262-0.205c0.12-0.035,0.234,0.014,0.319,0.085
			l8.975,8.193c0.071,0.071,0.113,0.166,0.113,0.269s-0.042,0.198-0.113,0.269l-8.975,8.193
			C144.278,107.751,144.193,107.783,144.101,107.783z M140.845,99.229l3.383,7.588l8.31-7.588l-8.31-7.588L140.845,99.229z"/>
		<path fill="#92C83E" d="M94.536,154.588c-0.014,0-0.025,0-0.039,0c-0.106-0.014-0.205-0.071-0.265-0.163L75.75,126.098
			c-0.096-0.149-0.071-0.34,0.057-0.46c0.134-0.134,0.322-0.134,0.467-0.028l26.674,20.13c0.081,0.064,0.134,0.163,0.142,0.262
			c0.007,0.106-0.032,0.212-0.106,0.283l-8.193,8.197C94.723,154.552,94.631,154.588,94.536,154.588z M77.491,127.436l17.105,26.218
			l7.581-7.588L77.491,127.436z"/>
		<path fill="#92C83E" d="M94.536,154.588c-0.011,0-0.021,0-0.032,0l-25.825-2.237c-0.106-0.007-0.205-0.064-0.265-0.156
			c-0.064-0.085-0.081-0.198-0.053-0.304l7.344-26.09c0.039-0.134,0.156-0.241,0.297-0.262c0.138,0.014,0.28,0.042,0.357,0.163
			l18.481,28.327c0.074,0.113,0.078,0.269,0.007,0.382C94.78,154.524,94.663,154.588,94.536,154.588z M69.178,151.664l24.646,2.138
			l-17.639-27.039L69.178,151.664z"/>
		<path fill="#92C83E" d="M76.054,126.261c-0.106,0-0.212-0.05-0.283-0.134l-14.698-18.478c-0.085-0.106-0.103-0.251-0.05-0.375
			l3.652-8.193c0.06-0.131,0.191-0.212,0.333-0.212h0.004c0.145,0,0.276,0.088,0.333,0.223l11.046,26.667
			c0.067,0.17,0.004,0.361-0.152,0.453C76.182,126.247,76.118,126.261,76.054,126.261z M61.778,107.369l12.957,16.287l-9.736-23.51
			L61.778,107.369z"/>
		<path fill="#92C83E" d="M56.472,127.896c-0.106,0-0.205-0.042-0.276-0.127c-0.074-0.085-0.103-0.205-0.078-0.319l4.884-20.113
			c0.035-0.134,0.142-0.241,0.276-0.269c0.142-0.035,0.273,0.025,0.361,0.127l14.698,18.478c0.085,0.106,0.103,0.248,0.05,0.368
			c-0.053,0.127-0.17,0.205-0.301,0.219l-19.582,1.635C56.494,127.896,56.483,127.896,56.472,127.896z M61.533,108.229l-4.59,18.902
			l18.407-1.536L61.533,108.229z"/>
		<path fill="#92C83E" d="M110.918,154.588c-0.099,0-0.191-0.035-0.255-0.106l-8.19-8.197c-0.074-0.071-0.113-0.177-0.106-0.283
			c0.007-0.099,0.06-0.198,0.142-0.262l26.671-20.13c0.134-0.113,0.326-0.106,0.467,0.028c0.127,0.12,0.149,0.311,0.057,0.46
			l-18.481,28.327c-0.064,0.092-0.156,0.149-0.269,0.163C110.946,154.588,110.932,154.588,110.918,154.588z M103.281,146.066
			l7.581,7.588l17.101-26.218L103.281,146.066z"/>
		<path fill="#92C83E" d="M110.918,154.588c-0.127,0-0.248-0.064-0.311-0.177c-0.071-0.113-0.071-0.269,0.007-0.382l18.481-28.327
			c0.085-0.127,0.212-0.177,0.361-0.163c0.142,0.021,0.255,0.127,0.29,0.262l7.347,26.09c0.028,0.106,0.014,0.219-0.05,0.304
			c-0.064,0.092-0.156,0.149-0.269,0.156l-25.828,2.237C110.939,154.588,110.925,154.588,110.918,154.588z M129.265,126.763
			l-17.639,27.039l24.653-2.138L129.265,126.763z"/>
		<path fill="#92C83E" d="M129.399,126.261c-0.064,0-0.127-0.014-0.184-0.05c-0.156-0.092-0.219-0.283-0.149-0.453l11.049-26.667
			c0.057-0.134,0.184-0.223,0.326-0.223c0.007,0,0.007,0,0.007,0c0.142,0,0.276,0.081,0.333,0.212l3.652,8.193
			c0.057,0.124,0.035,0.269-0.05,0.375l-14.701,18.478C129.612,126.211,129.506,126.261,129.399,126.261z M140.463,100.146
			l-9.74,23.51l12.96-16.287L140.463,100.146z"/>
		<path fill="#92C83E" d="M148.985,127.896c-0.007,0-0.021,0-0.028,0l-19.585-1.635c-0.134-0.014-0.255-0.092-0.304-0.219
			c-0.05-0.12-0.035-0.262,0.05-0.368l14.701-18.478c0.092-0.11,0.227-0.163,0.361-0.127c0.134,0.028,0.241,0.134,0.276,0.269
			l4.884,20.113c0.028,0.113,0,0.234-0.078,0.319C149.19,127.853,149.091,127.896,148.985,127.896z M130.107,125.595l18.403,1.536
			l-4.587-18.906L130.107,125.595z"/>
		<path fill="#92C83E" d="M76.054,72.919c-0.088,0-0.177-0.032-0.248-0.096c-0.127-0.12-0.152-0.315-0.057-0.464L94.23,44.035
			c0.06-0.092,0.159-0.152,0.265-0.163c0.099,0.007,0.216,0.028,0.294,0.106l8.193,8.193c0.074,0.074,0.113,0.177,0.106,0.28
			c-0.007,0.106-0.06,0.202-0.142,0.265l-26.674,20.13C76.207,72.898,76.132,72.919,76.054,72.919z M94.596,44.808L77.491,71.019
			l24.685-18.63L94.596,44.808z"/>
		<path fill="#92C83E" d="M76.054,72.919c-0.018,0-0.035,0-0.053-0.004c-0.142-0.021-0.258-0.124-0.297-0.258l-7.344-26.09
			c-0.028-0.106-0.011-0.216,0.053-0.304c0.06-0.088,0.159-0.145,0.265-0.156l25.825-2.233c0.113-0.004,0.269,0.053,0.343,0.173
			c0.071,0.12,0.067,0.269-0.007,0.386l-18.48,28.323C76.292,72.859,76.175,72.919,76.054,72.919z M69.178,46.79l7.007,24.901
			l17.639-27.032L69.178,46.79z"/>
		<path fill="#92C83E" d="M65.009,99.59c-0.142,0-0.273-0.081-0.333-0.212l-3.652-8.193c-0.053-0.124-0.035-0.269,0.05-0.375
			l14.698-18.478c0.11-0.138,0.315-0.184,0.467-0.085c0.156,0.092,0.219,0.283,0.152,0.449L65.345,99.367
			c-0.057,0.134-0.188,0.223-0.333,0.223H65.009z M61.778,91.089l3.221,7.223l9.736-23.51L61.778,91.089z"/>
		<path fill="#92C83E" d="M61.356,91.397c-0.025,0-0.053,0-0.078-0.007c-0.134-0.028-0.241-0.134-0.276-0.269l-4.884-20.109
			c-0.025-0.113,0.004-0.234,0.078-0.322s0.163-0.138,0.308-0.124l19.582,1.632c0.131,0.011,0.248,0.096,0.301,0.216
			c0.053,0.124,0.035,0.265-0.05,0.372L61.64,91.262C61.569,91.347,61.466,91.397,61.356,91.397z M56.943,71.33l4.59,18.899
			L75.35,72.863L56.943,71.33z"/>
		<path fill="#92C83E" d="M129.399,72.919c-0.078,0-0.156-0.021-0.219-0.071l-26.671-20.13c-0.081-0.064-0.134-0.159-0.142-0.265
			c-0.007-0.103,0.032-0.205,0.106-0.28l8.19-8.193c0.071-0.081,0.219-0.11,0.29-0.106c0.113,0.011,0.205,0.071,0.269,0.163
			l18.481,28.324c0.092,0.149,0.071,0.343-0.057,0.464C129.576,72.887,129.491,72.919,129.399,72.919z M103.281,52.389l24.682,18.63
			l-17.101-26.211L103.281,52.389z"/>
		<path fill="#92C83E" d="M129.399,72.919c-0.12,0-0.234-0.06-0.304-0.163l-18.481-28.324c-0.078-0.117-0.078-0.265-0.007-0.386
			c0.064-0.117,0.163-0.177,0.34-0.173l25.828,2.233c0.113,0.011,0.205,0.067,0.269,0.156c0.064,0.088,0.078,0.198,0.05,0.304
			l-7.347,26.09c-0.035,0.134-0.149,0.237-0.29,0.258C129.435,72.919,129.421,72.919,129.399,72.919z M111.626,44.659l17.639,27.032
			l7.015-24.901L111.626,44.659z"/>
		<path fill="#92C83E" d="M140.449,99.59c0,0,0,0-0.007,0c-0.142,0-0.269-0.088-0.326-0.223l-11.049-26.671
			c-0.071-0.166-0.007-0.357,0.149-0.449c0.156-0.099,0.354-0.053,0.467,0.085l14.701,18.478c0.085,0.106,0.106,0.251,0.05,0.375
			l-3.652,8.193C140.725,99.509,140.59,99.59,140.449,99.59z M130.723,74.802l9.74,23.51l3.221-7.223L130.723,74.802z"/>
		<path fill="#92C83E" d="M144.101,91.397c-0.106,0-0.212-0.05-0.283-0.134l-14.701-18.478c-0.085-0.106-0.099-0.248-0.05-0.372
			c0.05-0.12,0.17-0.205,0.304-0.216l19.585-1.632c0.12-0.004,0.227,0.042,0.304,0.124c0.078,0.088,0.106,0.209,0.078,0.322
			l-4.884,20.109c-0.035,0.134-0.142,0.241-0.276,0.269C144.15,91.397,144.129,91.397,144.101,91.397z M130.107,72.863l13.817,17.37
			l4.587-18.902L130.107,72.863z"/>
	</g>
	<path display="inline" fill="#92C83E" d="M102.729,172.248c-28.564,0-51.802-32.758-51.802-73.019S74.165,26.21,102.729,26.21
		c28.561,0,51.798,32.758,51.798,73.019S131.289,172.248,102.729,172.248z M102.729,29.112c-26.964,0-48.9,31.452-48.9,70.117
		c0,38.661,21.935,70.117,48.9,70.117c26.961,0,48.896-31.456,48.896-70.117C151.625,60.564,129.69,29.112,102.729,29.112z"/>
</g>
</svg>
